<svg width="200" height="200" viewBox="0 0 200 200" fill="none" xmlns="http://www.w3.org/2000/svg">
<path d="M193.103 0H6.89655C3.08769 0 0 3.08769 0 6.89655V179.31C0 183.119 3.08769 186.207 6.89655 186.207H193.103C196.912 186.207 200 183.119 200 179.31V6.89655C200 3.08769 196.912 0 193.103 0Z" fill="#023047"/>
<path d="M72.4139 131.034H179.311V172.414H72.4139V131.034Z" fill="#5D4C72"/>
<path d="M14 14H180V131H14V14Z" fill="#8ECAE6"/>
<path d="M13.7927 131.034H72.4134V172.414H13.7927V131.034Z" fill="#393F4A"/>
<path d="M24.1382 186.207H51.7243V193.103C51.7243 196.912 48.6366 200 44.8278 200H31.0347C27.2259 200 24.1382 196.912 24.1382 193.103V186.207Z" fill="#2C2F38"/>
<path d="M148.276 186.207H175.863V193.103C175.863 196.912 172.775 200 168.966 200H155.173C151.364 200 148.276 196.912 148.276 193.103V186.207Z" fill="#2C2F38"/>
<path d="M141.379 89.6552H37.9311C34.1222 89.6552 31.0345 92.7428 31.0345 96.5517V110.345C31.0345 114.154 34.1222 117.241 37.9311 117.241H141.379C145.188 117.241 148.276 114.154 148.276 110.345V96.5517C148.276 92.7428 145.188 89.6552 141.379 89.6552Z" fill="#B49ACA"/>
<path d="M148.276 124.138C148.248 127.935 145.176 131.006 141.379 131.034H37.9311C34.127 131.023 31.0459 127.942 31.0345 124.138C31.0627 120.341 34.134 117.269 37.9311 117.241H141.379C145.184 117.253 148.265 120.334 148.276 124.138Z" fill="#894B9D"/>
<path d="M144.828 13.793H34.4828C32.5784 13.793 31.0345 15.3369 31.0345 17.2413V86.2068C31.0345 88.1112 32.5784 89.6551 34.4828 89.6551H144.828C146.732 89.6551 148.276 88.1112 148.276 86.2068V17.2413C148.276 15.3369 146.732 13.793 144.828 13.793Z" fill="#5D4C72"/>
<path d="M134.483 72.4138C132.578 72.4138 131.035 70.8699 131.035 68.9655V31.0344C131.035 29.13 132.578 27.5861 134.483 27.5861C136.387 27.5861 137.931 29.13 137.931 31.0344V68.9655C137.931 70.8699 136.387 72.4138 134.483 72.4138Z" fill="#3D324C"/>
<path d="M120.689 72.4138C118.785 72.4138 117.241 70.8699 117.241 68.9655V31.0344C117.241 29.13 118.785 27.5861 120.689 27.5861C122.594 27.5861 124.138 29.13 124.138 31.0344V68.9655C124.138 70.8699 122.594 72.4138 120.689 72.4138Z" fill="#3D324C"/>
<path d="M93.1035 72.4138C92.189 72.4136 91.3121 72.0502 90.6655 71.4035L85.6311 66.369C84.3243 65.016 84.3429 62.8652 85.6731 61.5351C87.0032 60.205 89.1539 60.1863 90.5069 61.4931L95.5414 66.5276C96.5273 67.5138 96.8222 68.9967 96.2886 70.285C95.755 71.5734 94.4979 72.4135 93.1035 72.4138V72.4138Z" fill="#B49ACA"/>
<path d="M63.6552 42.9656C62.7408 42.9654 61.8638 42.6019 61.2173 41.9552L56.1828 36.9207C54.876 35.5677 54.8947 33.417 56.2248 32.0869C57.5549 30.7568 59.7057 30.7381 61.0587 32.0449L66.0932 37.0794C67.0791 38.0655 67.374 39.5484 66.8404 40.8368C66.3068 42.1251 65.0497 42.9653 63.6552 42.9656V42.9656Z" fill="#B49ACA"/>
<path d="M58.6204 72.4138C57.2259 72.4135 55.9689 71.5734 55.4353 70.285C54.9017 68.9967 55.1965 67.5138 56.1824 66.5276L61.2169 61.4931C62.57 60.1863 64.7207 60.205 66.0508 61.5351C67.3809 62.8652 67.3996 65.016 66.0928 66.369L61.0583 71.4035C60.4118 72.0502 59.5348 72.4136 58.6204 72.4138V72.4138Z" fill="#B49ACA"/>
<path d="M88.0686 42.9656C86.6742 42.9653 85.4171 42.1251 84.8835 40.8368C84.3499 39.5484 84.6448 38.0655 85.6307 37.0794L90.6652 32.0449C92.0182 30.7381 94.1689 30.7568 95.4991 32.0869C96.8292 33.417 96.8479 35.5677 95.5411 36.9207L90.5066 41.9552C89.86 42.6019 88.9831 42.9654 88.0686 42.9656Z" fill="#B49ACA"/>
<path d="M31.0341 41.3792V68.9654C31.0341 76.5831 24.8587 82.7585 17.241 82.7585H13.7927V27.5861H17.241C24.8587 27.5861 31.0341 33.7615 31.0341 41.3792Z" fill="#023047"/>
<path d="M41.3798 148.276C43.2842 148.276 44.8281 146.732 44.8281 144.828C44.8281 142.923 43.2842 141.379 41.3798 141.379C39.4754 141.379 37.9315 142.923 37.9315 144.828C37.9315 146.732 39.4754 148.276 41.3798 148.276Z" fill="#2C2F38"/>
<path d="M41.3798 162.069C43.2842 162.069 44.8281 160.525 44.8281 158.621C44.8281 156.716 43.2842 155.172 41.3798 155.172C39.4754 155.172 37.9315 156.716 37.9315 158.621C37.9315 160.525 39.4754 162.069 41.3798 162.069Z" fill="#2C2F38"/>
<path d="M31.0349 155.173C32.9394 155.173 34.4832 153.629 34.4832 151.724C34.4832 149.82 32.9394 148.276 31.0349 148.276C29.1305 148.276 27.5867 149.82 27.5867 151.724C27.5867 153.629 29.1305 155.173 31.0349 155.173Z" fill="#2C2F38"/>
<path d="M51.7247 155.173C53.6291 155.173 55.173 153.629 55.173 151.724C55.173 149.82 53.6291 148.276 51.7247 148.276C49.8202 148.276 48.2764 149.82 48.2764 151.724C48.2764 153.629 49.8202 155.173 51.7247 155.173Z" fill="#2C2F38"/>
<path d="M72.4139 106.897H65.5174C63.6129 106.897 62.0691 105.353 62.0691 103.448C62.0691 101.544 63.6129 100 65.5174 100H72.4139C74.3183 100 75.8622 101.544 75.8622 103.448C75.8622 105.353 74.3183 106.897 72.4139 106.897Z" fill="#955BA5"/>
<path d="M106.897 106.897H86.2071C84.3026 106.897 82.7588 105.353 82.7588 103.448C82.7588 101.544 84.3026 100 86.2071 100H106.897C108.801 100 110.345 101.544 110.345 103.448C110.345 105.353 108.801 106.897 106.897 106.897Z" fill="#955BA5"/>
<path d="M75.862 68.9655C85.3841 68.9655 93.1034 61.2463 93.1034 51.7241C93.1034 42.202 85.3841 34.4827 75.862 34.4827C66.3398 34.4827 58.6206 42.202 58.6206 51.7241C58.6206 61.2463 66.3398 68.9655 75.862 68.9655Z" fill="#3D324C"/>
</svg>
